# xmcd
#
# Track frame offsets:
# 150
# 21744
# 39732
# 58712
# 70052
# 88032
# 104697
# 123187
# 133317
# 146027
# 158555
#
# Disc length: 2263 seconds
#
#
# Revision: 0
# Processed by: cddbd v1.5.2PL0 Copyright (c) Steve Scherf et al.
# Submitted via: FreeRIP 2.951 
#
DISCID=a408d50b
DTITLE=Discerner JC Gianadda - Discerner
DYEAR=2000
DGENRE=Cult
TTITLE0=Combien de temps, combien de rêves
TTITLE1=Donn' Donn' moi la main
TTITLE2=Tant qu'il aura
TTITLE3=Et découvrir soudain
TTITLE4=Accueillir
TTITLE5=En attendant un peu de ta lumière
TTITLE6=Comme un grand feu
TTITLE7=C'est Lui, c'est son pas...
TTITLE8=Talitha Koum
TTITLE9=Avec Marie
TTITLE10=Peuples chantez son Nom
EXTD=
EXTT0=
EXTT1=
EXTT2=
EXTT3=
EXTT4=
EXTT5=
EXTT6=
EXTT7=
EXTT8=
EXTT9=
EXTT10=
PLAYORDER=
